<svg xmlns="http://www.w3.org/2000/svg" viewBox="0 0 100 100">
  <defs>
    <linearGradient id="bgGrad" x1="0%" y1="0%" x2="100%" y2="100%">
      <stop offset="0%" style="stop-color:#dc2626;stop-opacity:1" />
      <stop offset="100%" style="stop-color:#991b1b;stop-opacity:1" />
    </linearGradient>
    <linearGradient id="glowGrad" x1="0%" y1="0%" x2="100%" y2="100%">
      <stop offset="0%" style="stop-color:#fca5a5;stop-opacity:0.8" />
      <stop offset="100%" style="stop-color:#dc2626;stop-opacity:0.3" />
    </linearGradient>
  </defs>
  
  <!-- Background circle with gradient -->
  <circle cx="50" cy="50" r="48" fill="url(#bgGrad)" stroke="#b91c1c" stroke-width="2"/>
  
  <!-- Subtle glow effect -->
  <circle cx="50" cy="50" r="44" fill="none" stroke="url(#glowGrad)" stroke-width="1" opacity="0.5"/>
  
  <!-- Smart Home Icon -->
  <!-- House base -->
  <path d="M 50 25 L 70 40 L 70 70 L 30 70 L 30 40 Z" fill="white" stroke="white" stroke-width="2" stroke-linejoin="round"/>
  
  <!-- Roof -->
  <path d="M 50 20 L 75 42 L 25 42 Z" fill="white" stroke="white" stroke-width="2" stroke-linejoin="round"/>
  
  <!-- Door -->
  <rect x="44" y="56" width="12" height="14" fill="#dc2626" rx="1"/>
  
  <!-- Windows -->
  <rect x="35" y="46" width="8" height="8" fill="#06b6d4" rx="1"/>
  <rect x="57" y="46" width="8" height="8" fill="#06b6d4" rx="1"/>
  
  <!-- AI Circuit lines (tech detail) -->
  <circle cx="42" cy="50" r="1.5" fill="#fbbf24"/>
  <circle cx="58" cy="50" r="1.5" fill="#fbbf24"/>
  
  <!-- Chimney with smoke (AI indicator) -->
  <rect x="60" y="30" width="6" height="10" fill="white"/>
  <path d="M 63 28 Q 61 24 63 20" fill="none" stroke="#06b6d4" stroke-width="1.5" stroke-linecap="round" opacity="0.7"/>
</svg>
